<svg width="12" height="12" viewBox="0 0 12 12" fill="none" xmlns="http://www.w3.org/2000/svg">
<path fill-rule="evenodd" clip-rule="evenodd" d="M5.65766 0.233466L4.08588 3.77499L0.333381 4.2815C0.260783 4.291 0.19234 4.32224 0.136246 4.37146C0.0801529 4.42068 0.0387867 4.4858 0.0171016 4.55903C-0.00458356 4.63225 -0.00566858 4.71047 0.0139765 4.78433C0.0336215 4.85818 0.0731639 4.92453 0.127869 4.97544L2.90609 7.5957L2.15635 11.5241C2.14223 11.5992 2.14903 11.677 2.17595 11.7481C2.20286 11.8193 2.24876 11.8808 2.30814 11.9254C2.36753 11.97 2.43791 11.9957 2.51087 11.9995C2.58383 12.0033 2.65629 11.985 2.7196 11.9468L6.00018 9.95273L9.28457 11.9468C9.34788 11.985 9.42034 12.0033 9.4933 11.9995C9.56626 11.9957 9.63664 11.97 9.69603 11.9254C9.75542 11.8808 9.80131 11.8193 9.82823 11.7481C9.85514 11.677 9.86195 11.5992 9.84782 11.5241L9.09809 7.5957L11.8763 4.97544C11.9299 4.92405 11.9684 4.85766 11.9871 4.7841C12.0059 4.71055 12.0041 4.6329 11.9821 4.56035C11.9601 4.48779 11.9187 4.42335 11.8629 4.37464C11.807 4.32594 11.7391 4.295 11.667 4.28548L7.91449 3.77499L6.34651 0.233466C6.31624 0.163837 6.26749 0.104803 6.20608 0.063407C6.14467 0.0220109 6.0732 0 6.00018 0C5.92717 0 5.85569 0.0220109 5.79428 0.063407C5.73288 0.104803 5.68413 0.163837 5.65386 0.233466H5.65766Z" fill="#222222"/>
</svg>
