<svg width="13" height="16" viewBox="0 0 13 16" fill="none" xmlns="http://www.w3.org/2000/svg">
<path d="M2 8H0M2 8C2 8.53043 2.21071 9.03914 2.58579 9.41421C2.96086 9.78929 3.46957 10 4 10C4.53043 10 5.03914 9.78929 5.41421 9.41421C5.78929 9.03914 6 8.53043 6 8M2 8C2 7.46957 2.21071 6.96086 2.58579 6.58579C2.96086 6.21071 3.46957 6 4 6C4.53043 6 5.03914 6.21071 5.41421 6.58579C5.78929 6.96086 6 7.46957 6 8M13 8H6M13 3H11M11 3C11 3.53043 10.7893 4.03914 10.4142 4.41421C10.0391 4.78929 9.53043 5 9 5C8.46957 5 7.96086 4.78929 7.58579 4.41421C7.21071 4.03914 7 3.53043 7 3M11 3C11 2.46957 10.7893 1.96086 10.4142 1.58579C10.0391 1.21071 9.53043 1 9 1C8.46957 1 7.96086 1.21071 7.58579 1.58579C7.21071 1.96086 7 2.46957 7 3M7 3H0M13 13H11M11 13C11 13.5304 10.7893 14.0391 10.4142 14.4142C10.0391 14.7893 9.53043 15 9 15C8.46957 15 7.96086 14.7893 7.58579 14.4142C7.21071 14.0391 7 13.5304 7 13M11 13C11 12.4696 10.7893 11.9609 10.4142 11.5858C10.0391 11.2107 9.53043 11 9 11C8.46957 11 7.96086 11.2107 7.58579 11.5858C7.21071 11.9609 7 12.4696 7 13M7 13H0" stroke="#222222" stroke-width="2"/>
</svg>
